<?xml version="1.0" encoding="UTF-8"?>
<svg width="752pt" height="752pt" version="1.1" viewBox="0 0 752 752" xmlns="http://www.w3.org/2000/svg">
 <path d="m428.98 437.71 44.25-78.879c31.672-50.465 19.684-115.88-27.824-151.84-40.848-31.078-97.824-31.078-138.67 0-47.359 36.109-59.344 101.38-28.117 151.25l44.547 79.621c-33.594 11.988-55.203 34.926-55.203 60.824-0.14844 39.07 47.359 69.707 108.04 69.707s108.18-30.637 108.18-69.707c0-26.047-21.605-48.984-55.199-60.973zm-52.984-182.92c20.719 0 37.441 16.723 37.441 37.441s-16.723 37.441-37.441 37.441-37.441-16.723-37.441-37.441c0-20.57 16.871-37.441 37.441-37.441zm0 284.45c-46.617 0-79.027-21.461-79.027-40.551 0-13.91 16.574-27.824 40.551-35.074l25.75 46.176c2.6641 4.5859 7.3984 7.3984 12.727 7.3984s10.062-2.8125 12.727-7.3984l25.898-46.176c23.977 7.25 40.551 21.164 40.551 35.074 0.003907 19.238-32.555 40.551-79.176 40.551z" fill="#ff001b"/>
</svg>
